<svg version="1.1" id="Layer_1" xmlns="http://www.w3.org/2000/svg" xmlns:xlink="http://www.w3.org/1999/xlink" x="0px" y="0px"
	 viewBox="0 0 1000 964" style="enable-background:new 0 0 1000 964;" xml:space="preserve">
<style type="text/css">
	.st0{fill:#FFFFFF;}
</style>
<path class="ampersand-top" d="M361,1c9.8,1.6,19.8,2.5,29.5,4.9C462,23.1,503.7,69.5,519.9,140c9.8,42.8,1.3,83.6-15.5,123.2
	c-9.2,21.7-20.6,42.2-34.9,60.9c-1,1.3-2.1,2.6-3.5,4.3c-3.7-3.6-7.2-7-10.8-10.4c-18.6-17.7-37.2-35.2-55.6-53.1
	c-5.1-5-9.2-11-13.9-16.4c-2-2.3-1.8-4.1-0.2-6.6c15.4-25.1,21.9-52.3,18.5-81.7c-2.1-18.2-8.1-35.1-21-48.7
	c-27-28.3-72.8-27.8-99.3,1.1c-21.3,23.2-26.2,50.8-20.3,81c0.5,2.4,0.7,5,0.1,7.3c-6.3,25.5-8.5,51.2-4.7,77.3c0.1,1,0.2,2,0.2,3
	c0,0.5-0.1,1-0.3,2c-40.5-20.5-66.8-52.5-80.2-96.9c-15.4,33.1-20.7,65.9-12.3,100.4c-28.9-28.1-39.5-63.6-40.8-102.4
	c-1.1-32,3.8-62.8,23.6-89.5c0.6,13.7,2.2,27,7.9,40.1c11-51,36.6-91.5,78.5-121.6c-3.4,11-6.6,21.9-5.5,32.8
	c3.1-2.7,6.5-5.3,9.6-8.2c20.8-18.7,45.7-28.7,72.8-34C318.9,2.8,325.4,2,332,1C341.7,1,351.3,1,361,1z"/>
<path class="tail" d="M1001,417c-27.8-6.7-55.3-3.3-82.6,2.5c-17.1,3.6-33.8,8.7-49.5,16.7c-5.5,2.8-10.6,6.2-14.9,8.8
	c-10.9-4.4-21.1-10.3-32-12.7c-45.6-9.8-85.1,2.2-116.1,37.2c-36.6,41.1-64.1,88.2-86.7,138.3c-0.8,1.7-1.5,3.4-2.2,5
	c-0.1,0.3-0.4,0.4-0.7,0.7c-22.5-15.3-40.1-37.7-67-47.5c0.4-0.8,0.7-1.7,1.2-2.4c38.3-52.3,83.2-97.5,139.4-130.7
	c29.7-17.5,61.3-29.8,95.7-34.3c3.3-0.4,6.6-0.8,9.8-2.1c-8.1,0-16.2-0.6-24.3,0.1c-39.4,3.6-75.3,17.8-109.1,37.6
	c-25.5,14.9-48.5,32.9-67.9,55.3c-0.7,0.9-1.1,2-1.7,3.1c-0.6-0.6-1.3-1.2-1.9-1.7c20.5-57.3,57-102,107.2-136.1
	c0.4,0.3,0.8,0.6,1.3,0.9c-2.2,3.2-4.6,6.2-6.4,9.5c-3.4,6.1-6.9,12.2-9.5,18.6c-1,2.3-0.7,6.6,0.9,8.1c1.6,1.5,5.9,1.7,8.2,0.7
	c4.7-2,9.2-4.7,13.2-7.9c13.4-10.4,26.3-21.5,39.9-31.7c15.2-11.4,31.8-20,50.8-23.3c1.1-0.2,2.3-0.4,3.5-0.5c1.2-0.1,2.3,0,4.6,0
	c-1.9,1.2-3,2-4.1,2.7c-6.9,4.7-13.9,9.1-20.6,14.1c-2.9,2.1-5.1,5.2-7.2,8.2c-2.1,3-2.9,6.4-0.6,9.8c2.3,3.5,5.9,3.6,9.4,2.8
	c4.8-1.2,9.7-2.5,14.4-4.2c17.5-6,35.3-10.8,53.9-11.8c25.8-1.4,50.3,3.6,74.1,13.3c28.1,11.5,52.9,27.9,74.4,49.4
	c1,1,2.3,1.8,3.4,2.7C1001,416.3,1001,416.7,1001,417z"/>
<path class="ampersand-lower" d="M480.9,672.7c11.7,9.6,23.1,18.8,34.3,28.2c15.1,12.6,29.9,25.5,45,38.1c3.2,2.7,3.6,4.8,1.7,8.7
	c-19.5,38.9-42.7,75.3-73.3,106.6c-39.3,40.2-86.1,66.7-141.7,76.6c-50.6,8.9-99.9,4.9-147-16.8c-33.3-15.3-62.5-36-85.4-65.1
	c-3.8-4.8-6.9-10-11.1-16.1c-1.5,14.3,0.1,27.4,1.9,41c-3.4-3.2-7.1-6.1-10.2-9.5c-23.5-25.6-37.9-56.2-47.8-89
	c-17.6-58.3-19.5-116.9-1.2-175.5c3-9.6,7-19,9.9-29.5c-7.3,4.7-14.7,9.1-21.8,14.1c-7.1,5-13.8,10.5-21.5,15.5
	c3.4-8.5,6.3-17.2,10.1-25.4c23.3-49.6,55.5-92.7,94.4-131.4c4.3,3.5,6,8.1,5.5,12.9c-1.1,10.7-2.9,21.4-4.4,32.1
	c-2.1,15.7-4.1,31.3-6.1,47c-0.2,1.4,0.1,2.9,0.3,4.7c35-35.1,75.2-61.7,119.7-82.1c-5.1,11.3-10.6,22-14.9,33.1
	c-4.3,11.3-5.8,23.4-6.5,36.7c24.9-22.7,51.3-37.3,86.4-25.8c-4.2,4.3-7.7,7.9-11.2,11.7c-28.9,31.1-51,66.2-60.7,108
	c-9.4,40.5-6.9,80,15.5,116.2c21,33.9,51.9,51.4,92,51.3c23.4-0.1,44.1-9.3,63.3-22c34.3-22.9,60.8-53.1,81.6-88.5
	C478.7,676.7,479.6,675.1,480.9,672.7z"/>
<path class="flame" d="M388.7,473.9c3.4,23,17.4,35.6,41.2,38.2c8.4,0.9,16.9,1.5,25.3,2.8c15.4,2.4,24.1,11.6,26.8,26.9
	c1.1,5.9,2.1,11.8,3.7,17.6c3.1,11.7,8.5,16,20.5,16.8c8.3,0.6,16.6,1,24.9,1.7c14.2,1.2,26.4,7.1,37.4,16.2
	c36.1,30,72.5,59.8,108.7,89.7c10.6,8.8,22.3,15.4,36.4,15.9c30.9,1.3,53.8-28.1,46.2-58.9c-0.4-1.5-0.7-3.1-1.2-5
	c42.8,22.8,55.8,103.4,14.4,135.5c8.4,0.3,16.8,1.1,25.1,0.7c20.2-1,39.2-6.4,55.4-18.8c27.5-21.1,30.9-57,8.1-83.1
	c-9.4-10.8-21.1-18.2-34.9-23c3.3,0,6.6,0,9.9,0c3.3,0,6.7,0,10,0.1c3.5,0.2,7,0.5,10.4,1c36.9,5.4,67.8,21.6,90,51.9
	c32.5,44.3,27.1,103.3-12.6,142c-29.2,28.4-64.8,40.1-105.2,38.2c-3.2-0.1-6.3-0.4-9.5-0.6c-0.1,0-0.3,0.1-1.3,0.5
	c13.4,11.1,28.7,17,44.9,20.6c16.4,3.7,32.9,4.8,50-1.3c-7,11.3-16.3,18.5-26.3,24.8c-26.6,16.8-55.7,26-87.1,27.1
	c-40.1,1.4-74.8-10.9-102-41.2c-19.4-21.7-31-47.1-33.9-76.3c0-0.5-0.1-1-0.2-1.5c-0.1-0.3-0.3-0.5-0.5-0.8
	c-11.2,7-19.8,31.2-19.4,47.5c0.4,17.4,2.7,24.8,16.9,49.6c-6-2.7-12.2-4.9-17.9-8.3c-33.6-20-50.6-49.6-49.6-88.9
	c0.4-16.1,1.8-32.3,1.7-48.4c-0.1-22.5-8.9-41.5-26.2-56.1c-30.4-25.5-61-50.6-91.5-76c-15-12.5-27.4-26.9-31.6-46.6
	c-1.8-8.6-2.6-17.4-3.3-26.2c-1-11.3-6.1-20.3-14.6-27.5c-8.9-7.5-18.3-14.4-27.1-22.1c-15.1-13.2-20.2-33.2-13.6-51.2
	C387.4,476.5,387.8,475.7,388.7,473.9z"/>
<path class="dragon-head" d="M400.3,563.7c-8.3,24.1-53.5,50-84.9,48.1c13.1-8.9,23.7-19.2,29.7-33.3c-12,1.5-23.8,3-35.6,4.5c-0.2-0.5-0.3-1-0.5-1.5
	c0.9-0.8,1.7-1.6,2.6-2.3c17-13.4,25.6-40.4,19.1-60.9c-6.5-20.6-22.3-30.4-42.4-34.2c-19.3-3.6-37.8-0.8-56.1,10.3
	c12.4-30.1,32.9-50.5,61.9-65.4c-15.7-4-30-7.7-45.5-11.7c26.6-17.1,55.6-24.1,85.7-26.9c-6.5-4.4-42.6-4.1-69.5,3.8
	c-23,6.7-44.2,16.6-60.8,35c14.6,2.6,28.8,5.2,43,7.8c0,0.5,0,1,0,1.5c-22,5-42.2,14.5-61.6,25.7c-19.3,11.2-37.7,23.7-54.3,39.5
	c2.2-9.5,5.1-18.2,6.2-27.2c1.1-8.5,1.6-17.4,0.1-25.8c-2.9-17.4-16.6-27.7-36.4-29.9c-14.8-1.7-29.2,0.1-43.7,2.5
	c-1.5,0.2-2.9,0.5-5-0.1c1.7-1.6,3.3-3.2,5.1-4.7c17.7-15,38.1-25.5,58.2-36.6c11.5-6.3,22.8-13,34.1-19.8c2.9-1.8,5.4-4.4,7.8-6.9
	c3.3-3.5,4.2-7.8,2.9-12.5c-3.1-11.8-10.8-20.6-19.3-28.6c-7.5-7-15.7-13.2-23.7-19.9c23.8-0.9,47.8,0.4,71.6,6.8
	c-12.8-30.6-15.6-53.9-9.1-69c6.8,9,13.3,19,21.3,27.7c15.3,16.7,34.9,27.5,54.3,38.8c10.9,6.3,22,12.6,32.7,19.3
	c15.6,9.8,29.9,21.1,40.2,37.2c-0.6-1.9-1.1-3.8-1.8-5.7c-7.7-20-21-35.8-38.5-47.3c-9.9-6.5-13.4-14.8-14.7-25.3
	c-3.6-28.2-1.3-55.9,8-82.8c2.1-6,5.4-11.7,8.1-17.5c0.4,0.1,0.8,0.3,1.3,0.4c0.6,6.5,0.9,13,1.9,19.4c3.3,20.9,13.1,39,25.8,55.6
	c15.3,20.1,33.8,37.2,52.5,54c20.9,18.9,42.7,36.8,60.5,58.8c4.4,5.4,8.2,11.3,13,16.8c-0.6-1.7-1.1-3.4-1.8-5
	c-10-22.3-25.3-40.6-42.7-57.4c-15.5-14.9-30.9-30-47.5-43.6c-18.1-14.8-19.3-34-16.6-54.3c1.3-9.8,4.8-19.3,7.5-28.8
	c0.7-2.4,2.4-4.5,4-6.7c-0.1,33.3,15.3,59.9,36.6,83.1c18.1,19.7,38.1,37.7,57.5,56.1c18.6,17.6,36.1,36,47.7,59.2
	c8.6,17,13.1,34.8,10.3,54.1c-0.2,1.2,0.9,3.3,1.9,3.7c11.4,4.9,18.6,12.7,18,26.6c14.1-5,23.2-14.7,30.3-26.9
	c7.8,36.1-16,92.7-49.3,108.6c0-6.1,0.5-12.6-0.1-19.1c-1.3-13.4-8.1-23-20.6-28.3c-15.7-6.6-32.3-7.5-49-7.4c-1,0-2,0.2-3,0.2
	c-0.3,0-0.6-0.2-1.3-0.4c1.8-3.4,3.7-6.6,5.1-10.1c2-4.9,4-9.9,5.2-15c2-8.9-1.1-14.7-10-16.4c-10.6-2-21.4-3.3-32.2-3.2
	c-23.2,0.2-46.1,3.5-68.6,9.4c-2.1,0.5-4.1,1.3-6.1,2.3c15.2,0.8,30.2,1.9,43.7,6.1c-3.7,12-7.6,23.4-10.7,35
	c-1,3.8-0.7,8.3,0.2,12.3c1.7,7.9,8.3,10.6,15.3,6.5c3-1.7,5.5-4.2,7.8-5.9c-1.6,9.4-3.4,19.3-5,29.2c-0.2,1.5-0.2,3-0.1,4.5
	c0.3,9.7,4.7,14.4,14.4,14.8C390.1,565,395.1,564.1,400.3,563.7z M439.4,428.7c-8.5-21-22.4-36.1-43.8-44.9
	C401.7,414.1,418.2,430.5,439.4,428.7z"/>
<path class="st0 eye" d="M439.4,428.7c-21.2,1.9-37.7-14.6-43.8-44.9C417,392.5,431,407.6,439.4,428.7z"/>
</svg>
