<svg xmlns="http://www.w3.org/2000/svg" xmlns:xlink="http://www.w3.org/1999/xlink" version="1.1" x="0px" y="0px" viewBox="0 0 50 50" style="enable-background:new 0 0 50 50;" xml:space="preserve"><path fill="#3d4f5d" d="M43.1152344,39.3574219c-0.0845337-0.1970215-1.8067017-4.1049805-4.3569336-5.348877l0.3032227-0.9089355  c0.0166016-0.0507813,0.0253906-0.1044922,0.0253906-0.1582031v-11.203125c0-0.1337891-0.0537109-0.2617188-0.1484375-0.3554688  l-1.2666016-1.2539063l1.3623047-2.7294922c0.0351563-0.0693359,0.0527344-0.1464844,0.0527344-0.2236328v-5.3222656  c0-0.1630859-0.1210938-0.3984375-0.2548828-0.4912109c-0.0439453-0.03125-0.1318359-0.0917969-0.3007813-0.1142578  c0.2275391-0.8154297,0.0927734-1.0048828,0.0048828-1.1269531c-0.5625-0.796875-1.4794922-1.2724609-2.4541016-1.2724609  h-3.0410156c-0.1728516,0-0.3339844,0.0888672-0.4248047,0.2363281l-0.5185547,0.8349609l-3.8447266-1.0537109  c-0.0429688-0.0117188-0.0869141-0.0175781-0.1318359-0.0175781H13.7197266c-1.6572266,0-3.0048828,1.3476563-3.0048828,3.0048828  v26.1191406c0,1.6572266,1.3476563,3.0048828,3.0048828,3.0048828h4.8310547c0.0761719,0,0.1503906-0.0175781,0.21875-0.0507813  l1.5078125-0.7333984l2.0625,0.7539063c0.0556641,0.0195313,0.1132813,0.0302734,0.171875,0.0302734h4.6912842  c-0.0008545,0.0073242-0.005188,0.0130615-0.0057373,0.0205078c-0.0195313,0.2841797-0.0878906,1.7333984,0.5087891,2.3730469  c0.1992188,0.2128906,0.4521484,0.3271484,0.734375,0.3300781c0.0039063,0,0.0078125,0,0.0126953,0  c0.8330078,0.0058594,1.4609375,0.0351563,1.9960938,0.0634766c0.3730469,0.0195313,0.7041016,0.0371094,1.0048828,0.0371094  c0.8925781,0,1.515625-0.1552734,2.1777344-0.8691406c0.4599609-0.4970703,0.8867188-1.09375,1.2988281-1.6708984  c0.074707-0.1044312,0.1497192-0.2089233,0.2248535-0.3130493c0.0462036,0.0140991,0.0924683,0.0288696,0.1433105,0.0288696  h0.7832031c0.7404785,0,1.4377441-0.2850952,1.9841309-0.7704468c0.2749634,0.4769897,0.5512695,1.0568237,0.763916,1.6620483  c0.0742188,0.2109375,0.2861328,0.3554688,0.5039063,0.3330078c0.2236328-0.0146484,0.4111328-0.1767578,0.4570313-0.3955078  l0.4404297-2.0917969l2.3544922,0.3359375c0.1787109,0.0214844,0.3574219-0.046875,0.4677734-0.1914063  C43.1630859,39.7158203,43.1875,39.5234375,43.1152344,39.3574219z M14.9677734,20.1252441  c-0.3654175,0.0043335-1.0410156,0.0101318-1.3154297-0.0031738l-0.1132813-0.0058594  c-0.4394531-0.0228882-1.2769165-0.0568848-1.8242188,0.361084v-0.5370483  c0.1080322-0.7943726,0.9783325-0.8167725,1.7919922-0.7781372l0.1230469,0.0058594  c0.286377,0.0120239,0.9659424,0.0065918,1.3378906,0.0027466V20.1252441z M13.6513672,18.6679688l-0.1191406-0.0058594  c-0.4402466-0.0218506-1.2749023-0.053772-1.8173828,0.3453979v-0.0846558  c0.1392822-0.8052979,0.9988403-0.8325195,1.796875-0.7871094l0.1181641,0.0058594  c0.286377,0.0127563,0.9659424,0.007019,1.3378906,0.0028687v0.5264893  C14.6022339,18.6750488,13.9265137,18.680603,13.6513672,18.6679688z M11.7148438,21.4033203  c0.1392822-0.8052979,0.9988403-0.831543,1.796875-0.7871094l0.1181641,0.0058594  c0.286377,0.0127563,0.9659424,0.0075073,1.3378906,0.0032959v13.6790161  c-0.3655396,0.0040283-1.0412598,0.0100098-1.3164063-0.0026245l-0.1152344-0.0058594  c-0.4406128-0.0212402-1.2776489-0.0546875-1.8212891,0.3453979V21.4033203z M14.9677734,17.6445923  c-0.3654175,0.0040894-1.0410156,0.0096436-1.3154297-0.0029907l-0.1132813-0.0058594  c-0.4394531-0.0215454-1.2769165-0.0559692-1.8242188,0.3615112v-0.5374756  c0.1080322-0.7944336,0.9783325-0.817749,1.7919922-0.7781372L13.6298828,16.6875  c0.286377,0.0120239,0.9659424,0.0065918,1.3378906,0.0027466V17.6445923z M11.7148438,35.5740356  c0.1080322-0.7945557,0.9812622-0.8225708,1.7958984-0.7781372l0.1191406,0.0058594  c0.2883911,0.0127563,0.9665527,0.006958,1.3378906,0.0028687v0.953064  c-0.3655396,0.0038452-1.0412598,0.0090942-1.3164063-0.0028076l-0.1171875-0.0058594  c-0.4342041-0.020874-1.2716675-0.0546875-1.8193359,0.362854V35.5740356z M13.7197266,9.8486328h1.2480469v6.3418579  c-0.3655396,0.0040894-1.0412598,0.0096436-1.3164063-0.0029907l-0.1191406-0.0058594  c-0.4402466-0.0212402-1.2749023-0.0533447-1.8173828,0.3455811v-4.6737061  C11.7148438,10.7480469,12.6142578,9.8486328,13.7197266,9.8486328z M11.7148438,37.9726563v-0.9366455  c0.1383057-0.8024292,0.9911499-0.8343506,1.7939453-0.7869873l0.1210938,0.0058594  c0.286377,0.0120239,0.9659424,0.0065918,1.3378906,0.0027466v3.7199097h-1.2480469  C12.6142578,39.9775391,11.7148438,39.078125,11.7148438,37.9726563z M20.4208984,39.1806641  c-0.1279297-0.046875-0.2705078-0.0400391-0.390625,0.0205078l-1.5947266,0.7763672h-2.9677734V9.8486328h12.5859375  l4.1396484,1.1347656c0.2128906,0.0566406,0.4404297-0.03125,0.5566406-0.21875l0.5693359-0.9160156h2.7626953  c0.6103516,0,1.1884766,0.2802734,1.5683594,0.7568359c-0.0283203,0.2041016-0.1660156,0.6748047-0.3251953,1.0927734  c-0.0693359,0.1835938-0.0253906,0.390625,0.1123047,0.5292969s0.3427734,0.1855469,0.5283203,0.1181641  c0.0351563-0.0136719,0.0771484-0.0273438,0.1210938-0.0400391v4.7519531l-1.4716797,2.9482422  c-0.0966797,0.1933594-0.0576172,0.4267578,0.0957031,0.5791016l1.3759766,1.3623047v10.9130859l-0.2738037,0.8200073  c-0.1918945-0.0360107-0.3867188-0.0582886-0.5855713-0.0582886c-0.0019531,0-0.0039063,0-0.0058594,0  c-2.8395386,0.0042725-5.7067261,3.617981-7.473999,6.3554688h-7.1470947L20.4208984,39.1806641z M28.3037109,42.4101563  c-0.0878906-0.3125-0.1435547-0.828125-0.1083984-1.34375c0.0020752-0.0310669-0.0083008-0.05896-0.0117798-0.0888672h0.9400635  C28.7767334,41.5548096,28.4951172,42.0560913,28.3037109,42.4101563z M36.0820313,39.9775391h-0.1762695  c0.4035034-0.4708252,0.8031616-0.8244019,1.1850586-0.8876953c0.0963135-0.0114746,0.2407837,0.1014404,0.406189,0.2890625  C37.1221313,39.7561646,36.6176758,39.9775391,36.0820313,39.9775391z M39.9091797,38.6582031  c-0.2470703-0.0292969-0.5048828,0.1337891-0.5595703,0.3916016l-0.2099609,0.9970703  c-0.5234375-1.0234375-1.2880859-2.0947266-2.2119141-1.9433594c-1.0986328,0.1816406-1.9296875,1.3447266-2.8105469,2.5761719  c-0.3945313,0.5527344-0.8017578,1.1230469-1.2197266,1.5732422c-0.5449219,0.5888672-0.9189453,0.59375-2.3955078,0.5126953  c-0.3554688-0.0185547-0.7597656-0.0400391-1.2275391-0.0527344c1.5205078-2.78125,5.0224609-8.0859375,7.9492188-8.0908203  c0.0009766,0,0.0029297,0,0.0039063,0c1.8984375,0,3.6835938,2.6240234,4.5703125,4.3056641L39.9091797,38.6582031z M34.0458984,25  c0-4.3251953-3.5185547-7.84375-7.84375-7.84375s-7.84375,3.5185547-7.84375,7.84375s3.5185547,7.84375,7.84375,7.84375  S34.0458984,29.3251953,34.0458984,25z M30.5296631,30.2962036c0.0062256-0.0410156,0.0044556-0.0836792-0.0101318-0.1243286  c-0.03125-0.0859375-0.109375-0.1494141-0.2001953-0.1630859c-0.0009766,0-0.1425781-0.0234375-0.1640625-0.1123047  c-0.0117188-0.0488281-0.0322266-0.1728516,0.0302734-0.2646484c0.0693359-0.1044922,0.2294922-0.1484375,0.3515625-0.1669922  c0.8183594-0.1259766,1.1054688-0.6972656,1.1171875-0.7216797c0.0390625-0.0800781,0.03125-0.1728516-0.0146484-0.2451172  c0.0068359,0.0009766,0.0146484,0.0019531,0.0224609,0.0029297c0.1489258,0.0181274,0.2977295-0.005188,0.4396362-0.0494385  C31.6883545,29.1552124,31.15802,29.7818604,30.5296631,30.2962036z M32.3097534,21.9295044  c-0.2696533,0.3279419-0.0388184,0.8745728,0.1218872,1.2521362c0.0214844,0.0517578,0.046875,0.1103516,0.0693359,0.1650391  c-0.1181641,0.0107422-0.2207031,0.046875-0.3076172,0.109375c-0.1708984,0.1230469-0.2060547,0.2958984-0.2119141,0.3291016  c-0.0117188,0.0732422,0.0107422,0.1494141,0.0595703,0.2060547c0.0234375,0.0263672,0.5673828,0.6601563,0.4150391,1.6181641  c-0.0117188,0.0732422-0.0371094,0.1660156-0.0927734,0.1904297c-0.1289063,0.0498047-0.4326172-0.0859375-0.6025391-0.2050781  c-0.1054688-0.0732422-0.2490234-0.0556641-0.3339844,0.0419922c-0.0839844,0.0976563-0.0791016,0.2431641,0.0097656,0.3359375  c0.0849609,0.0888672,0.3164063,0.3935547,0.296875,0.5839844c-0.0332031,0.0185547-0.1513672,0.0175781-0.2363281-0.0029297  c-0.0898438-0.0205078-0.1835938,0.0126953-0.2431641,0.0820313c-0.0605469,0.0693359-0.078125,0.1679688-0.0449219,0.2539063  c0.0263672,0.0703125,0.1386719,0.4365234-0.2998047,0.6748047c-0.2529297,0.140625-0.4150391-0.0390625-0.4560547-0.09375  c-0.0585938-0.0820313-0.1542969-0.1210938-0.2578125-0.0996094c-0.0976563,0.0214844-0.1738281,0.1005859-0.1923828,0.1982422  c-0.0009766,0.0068359-0.1191406,0.6025391-0.6132813,0.9111328c-0.171875,0.1074219-0.3183594,0.1601563-0.4472656,0.2070313  c-0.1621094,0.0576172-0.3154297,0.1132813-0.4453125,0.2470703c-0.1660156,0.1699219-0.0810547,0.3662109-0.03125,0.484375  c0.0546875,0.125,0.1367188,0.3154297,0.1367188,0.6699219c0,0.1376953,0.1123047,0.25,0.25,0.25s0.25-0.1123047,0.25-0.25  c0-0.4482422-0.1064453-0.7041016-0.1728516-0.8583984c0.0439453-0.0224609,0.1015625-0.0439453,0.1816406-0.0732422  c0.1455078-0.0517578,0.3261719-0.1171875,0.5429688-0.2529297c0.3896484-0.2421875,0.6054688-0.5996094,0.7207031-0.8691406  c0.2011719,0.0986328,0.46875,0.1347656,0.7734375-0.03125c0.4658203-0.2539063,0.5947266-0.6328125,0.5917969-0.9404297  c0.0888672-0.0097656,0.1816406-0.0341797,0.2617188-0.0849609c0.1015625-0.0654297,0.1689453-0.1621094,0.1943359-0.2822266  c0.0273438-0.1357422,0.0185547-0.2685547-0.0117188-0.3925781c0.1220703,0.0126953,0.2529297,0.0068359,0.3730469-0.0439453  c0.1474609-0.0615234,0.3359375-0.2119141,0.3925781-0.5722656c0.1386719-0.8759766-0.1953125-1.5371094-0.3964844-1.8427734  c0.0273438-0.0058594,0.0585938-0.0009766,0.0966797,0.0068359c0.1409912,0.0220337,0.2232666-0.0228271,0.2805786-0.0698853  C33.0025635,24.1777954,33.0458984,24.5836182,33.0458984,25c0,0.4953003-0.0557251,0.977356-0.156189,1.4431152  c-0.4349976,0.1987305-0.6707764,0.4354248-0.6934204,0.7258301c-0.0185547,0.2294922,0.1005859,0.4169922,0.2255859,0.5478516  c-0.1953125,0.1513672-0.4736328,0.3242188-0.6953125,0.2880859c-0.1748047-0.0224609-0.5898438-0.0771484-0.7158203,0.2099609  c-0.0712891,0.1611328,0.0009766,0.3203125,0.09375,0.4404297c-0.1074219,0.1132813-0.3076172,0.2636719-0.6435547,0.3154297  c-0.3212891,0.0488281-0.5537109,0.1777344-0.6904297,0.3818359c-0.1660156,0.2470703-0.1347656,0.5195313-0.1015625,0.6591797  c0.03125,0.1328125,0.0996094,0.2333984,0.1816406,0.3085938c-0.1855469,0.1445313-0.3925781,0.2597656-0.5175781,0.2265625  c-0.1289063-0.0351563-0.2705078,0.0429688-0.3056641,0.1767578c-0.0361328,0.1328125,0.0429688,0.2705078,0.1767578,0.3056641  c0.0576172,0.015625,0.1162109,0.0224609,0.1748047,0.0224609c0.0059814,0,0.0116577-0.0037842,0.0176392-0.0039063  c-0.9545288,0.5062866-2.0408325,0.7958984-3.194397,0.7958984c-0.2062988,0-0.4095459-0.0130005-0.6112671-0.0309448  c-1.0461426-1.3642578-0.2666016-3.795105,0.3602905-5.2385864c0.3759766-0.8720703,0.4199219-1.7421875,0.1171875-2.3271484  c-0.1591797-0.3066406-0.6308594-0.6357422-1.1787109-0.3896484c-0.4023438,0.1757813-0.6708984,0.5830078-0.8330078,0.9228516  c-0.0810547-0.203125-0.1416016-0.4541016-0.1044922-0.7050781c0.0439453-0.2929688,0.2089844-0.5380859,0.5058594-0.7480469  c0.2685547-0.1904297,0.4570313-0.3916016,0.6230469-0.5673828c0.2490234-0.265625,0.4287109-0.4570313,0.7851563-0.5400391  c0.5878906-0.1357422,1.203125,0.0849609,1.2099609,0.0869141c0.0888672,0.0341797,0.1953125,0.0107422,0.2646484-0.0595703  c0.0507813-0.0517578,0.1738281-0.2246094,0.2333984-0.7070313c0.0214844-0.1728516,0.0214844-0.3320313,0.0097656-0.4726563  c0.2763672,0.2392578,0.5556641,0.6455078,0.4511719,1.2802734c-0.0371094,0.2246094-0.1396484,0.3955078-0.140625,0.3974609  c-0.0556641,0.0908203-0.0478516,0.2070313,0.0195313,0.2890625c0.0478516,0.0595703,0.3242188,0.3349609,0.9746094-0.0136719  c0.1435547-0.0771484,0.28125-0.1601563,0.4052734-0.2402344c-0.078125,0.1894531-0.1943359,0.390625-0.3681641,0.5498047  c-0.2714844,0.2470703-0.6259766,0.3154297-0.6298828,0.3164063c-0.0761719,0.0146484-0.1416016,0.0634766-0.1767578,0.1318359  c-0.0361328,0.0693359-0.0371094,0.1503906-0.0048828,0.2207031c0.0244141,0.0507813,0.1689453,0.3164063,0.6445313,0.5185547  c0.0869141,0.0361328,0.1865234,0.0664063,0.2861328,0.0908203c-0.0947266,0.0585938-0.2070313,0.1132813-0.3359375,0.1523438  c-0.1796875,0.0566406-0.5302734,0.0244141-0.7080078-0.0068359c-0.0947266-0.0195313-0.1904297,0.0224609-0.2470703,0.0996094  c-0.0556641,0.078125-0.0625,0.1816406-0.0166016,0.265625c0.0029297,0.0058594,0.2988281,0.5566406,0.3320313,1.1679688  c0.0175781,0.3046875,0.2265625,0.5605469,0.5458984,0.6660156c0.4013672,0.1337891,1.0693359,0.0449219,1.6386719-0.6386719  c0.328125-0.3945313,0.3691406-0.8105469,0.3476563-1.0849609c0.3535156-0.046875,0.9082031-0.1962891,1.0820313-0.6757813  c0.1455078-0.4013672-0.1015625-1.0742188-0.3496094-1.5908203c0.1650391,0.0234375,0.3203125-0.0058594,0.4296875-0.1445313  c0.3623047-0.4638672,0.0078125-0.8271484-0.2265625-1.0673828c-0.21875-0.2236328-0.4257813-0.4355469-0.3955078-0.7636719  c0.0693359-0.7636719-0.5722656-1.1962891-1.1142578-1.4238281c0.0253906-0.0234375,0.0507813-0.0488281,0.0742188-0.0771484  c0.0183105-0.0217285,0.0227661-0.0509033,0.038269-0.0742798C31.0544434,20.0585327,31.8014526,20.9227905,32.3097534,21.9295044z   M29.729187,19.1463013c-0.003418,0.0046997-0.0061646,0.0137329-0.0094604,0.0177612  c-0.1123047,0.1337891-0.3759766,0.1738281-0.4599609,0.1767578c-0.1269531,0.0048828-0.2314453,0.1054688-0.2402344,0.2324219  s0.0791016,0.2412109,0.2041016,0.2636719c0.015625,0.0029297,1.4941406,0.2939453,1.4199219,1.1054688  C30.5927734,21.5,30.9316406,21.8466797,31.1787109,22.1005859c0.2392578,0.2441406,0.2626953,0.3007813,0.2207031,0.3681641  c-0.1005859-0.0175781-0.3242188-0.1318359-0.4980469-0.2568359c-0.0957031-0.0703125-0.2285156-0.0625-0.3154297,0.0185547  c-0.0878906,0.0800781-0.1064453,0.2109375-0.0449219,0.3125c0.3378906,0.5585938,0.7851563,1.5302734,0.671875,1.8408203  C31.1044922,24.6826172,30.5078125,24.75,30.3066406,24.75c0,0,0,0-0.0009766,0  c-0.0800781,0-0.1552734,0.0400391-0.2021484,0.1054688c-0.0478516,0.0654297-0.0595703,0.1503906-0.0341797,0.2265625  c0.0068359,0.0195313,0.1582031,0.4824219-0.2001953,0.9121094c-0.3828125,0.4599609-0.8251953,0.5742188-1.0966797,0.484375  c-0.0732422-0.0244141-0.1962891-0.0849609-0.203125-0.21875c-0.0205078-0.3701172-0.1191406-0.7167969-0.2128906-0.9697266  c0.171875,0.0058594,0.3476563-0.0058594,0.4970703-0.0507813c0.609375-0.1845703,0.9394531-0.6230469,0.953125-0.6416016  c0.0537109-0.0722656,0.0634766-0.1679688,0.0273438-0.2509766c-0.0371094-0.0820313-0.1162109-0.1386719-0.2060547-0.1464844  c-0.1191406-0.0107422-0.4707031-0.0576172-0.6738281-0.1435547c-0.0507813-0.0214844-0.0957031-0.0429688-0.1347656-0.0654297  c0.1416016-0.0664063,0.2988281-0.1601563,0.4423828-0.2919922c0.6181641-0.5625,0.6787109-1.4570313,0.6816406-1.4951172  c0.0058594-0.0986328-0.046875-0.1914063-0.1347656-0.2363281c-0.0869141-0.046875-0.1953125-0.0351563-0.2714844,0.0263672  c-0.0039063,0.0039063-0.4189453,0.3349609-0.8857422,0.5869141c-0.0712891,0.0371094-0.1298828,0.0634766-0.1787109,0.0810547  c0.0224609-0.0703125,0.0419922-0.1484375,0.0566406-0.2324219c0.2041016-1.2441406-0.7158203-1.9257813-1.2304688-2.1123047  c-0.09375-0.0322266-0.1982422-0.0078125-0.2675781,0.0654297c-0.0683594,0.0732422-0.0859375,0.1806641-0.0458984,0.2724609  c0.0019531,0.0029297,0.1513672,0.3496094,0.0927734,0.8232422c-0.0166016,0.1298828-0.0361328,0.2255859-0.0546875,0.2919922  c-0.2773438-0.0693359-0.7695313-0.1533203-1.2705078-0.0371094c-0.5039063,0.1162109-0.7626953,0.3916016-1.0361328,0.6835938  c-0.1572266,0.1669922-0.3203125,0.3408203-0.5478516,0.5019531c-0.4082031,0.2900391-0.6474609,0.6533203-0.7109375,1.0820313  c-0.1181641,0.7890625,0.4189453,1.4960938,0.4414063,1.5253906c0.0585938,0.0761719,0.15625,0.1103516,0.2480469,0.0927734  c0.09375-0.0195313,0.1679688-0.0898438,0.1923828-0.1816406c0.0654297-0.25,0.328125-0.9365234,0.7509766-1.1230469  c0.3007813-0.1279297,0.4902344,0.0791016,0.5341797,0.1630859c0.1806641,0.3496094,0.2412109,1.0322266-0.1513672,1.9423828  c-0.0084229,0.0192871-0.0136719,0.0369263-0.0219727,0.0561523c-0.0184937,0.005249-0.0377197-0.0036011-0.0551758,0.0063477  c-0.4316406,0.234375-1.7636719,0.8095703-2.2246094,0.3798828c-0.0283203-0.0351563-0.0546875-0.1816406-0.0722656-0.2773438  c-0.0537109-0.3056641-0.1494141-0.8740234-0.7255859-0.8427734c-0.0244141-0.0429688-0.0283203-0.2041016-0.03125-0.3095703  c-0.0068359-0.2207031-0.0136719-0.4697266-0.1328125-0.6640625c-0.0625-0.1015625-0.15625-0.1669922-0.2646484-0.1845703  c-0.2021484-0.0371094-0.3867188,0.1113281-0.5585938,0.2529297c-0.0390625,0.0322266-0.0947266,0.078125-0.1416016,0.1113281  c-0.0273438-0.3134766,0.5615234-1.0146484,0.9042969-1.2529297c0.7109375-0.4960938,0.7705078-1.6298828,0.7724609-1.6777344  c0.0058594-0.1318359-0.0917969-0.2460938-0.2226563-0.2597656c-0.0322266-0.0039063-0.7402344-0.0742188-1.046875,0.5214844  c-0.0380859,0.0742188-0.0869141,0.1074219-0.1699219,0.1132813c-0.1289063,0-0.2705078-0.0498047-0.3681641-0.1083984  c0.3027344-0.3320313,0.2734375-0.5810547,0.1953125-0.7939453c0.0048828-0.0048828,0.046875-0.046875,0.25-0.1220703  c0.5634766-0.2070313,0.8095703-0.7822266,0.8486328-1.2119141c0.0234375-0.2636719-0.0322266-0.4375-0.1669922-0.5166016  c-0.0772705-0.0478516-0.2093506-0.0375366-0.2908936,0.0075073c1.1690063-0.930542,2.6452026-1.4909058,4.2518311-1.4909058  C27.4932251,18.15625,28.6975708,18.5222778,29.729187,19.1463013z M21.1470947,20.4030151  c0.199585,0.0551147,0.4383545,0.0153809,0.7357178-0.1373901c-0.0566406,0.2304688-0.1992188,0.5244141-0.4951172,0.6337891  c-0.4765625,0.1738281-0.6210938,0.3681641-0.5341797,0.7158203c0.0273438,0.1083984,0.0507813,0.2021484-0.2246094,0.4443359  c-0.0751953,0.0673828-0.1142578,0.2294922-0.0820313,0.3251953c0.0800781,0.2373047,0.4814453,0.4785156,0.8427734,0.5058594  c0.3242188,0.0273438,0.5712891-0.1171875,0.7080078-0.3828125c0.0664063-0.1298828,0.1806641-0.1943359,0.2880859-0.2255859  c-0.0615234,0.3291016-0.2109375,0.7851563-0.5224609,1.0029297c-0.3515625,0.2451172-1.4541016,1.3261719-1.0136719,2.0107422  c0.0859375,0.1337891,0.1982422,0.1767578,0.2773438,0.1894531c0.2265625,0.03125,0.4101563-0.1240234,0.5791016-0.2636719  c0.03125-0.0253906,0.0732422-0.0605469,0.1123047-0.0898438c0.0175781,0.0908203,0.0214844,0.2109375,0.0244141,0.3144531  c0.0068359,0.2666016,0.0214844,0.7636719,0.4814453,0.7636719c0.1669922,0,0.2148438,0.078125,0.2832031,0.4628906  c0.0371094,0.2050781,0.0751953,0.4169922,0.2216797,0.5527344c0.2265625,0.2119141,0.53125,0.2900391,0.8554688,0.2900391  c0.5313721,0,1.1154785-0.2079468,1.5091553-0.3803101c-0.1740723,0.4656982-0.3199463,0.9154663-0.4202881,1.3377686  c-0.0182495,0.0036011-0.0360718-0.0064087-0.0537109,0.0015259c-0.6171875,0.2783203-0.9541016,0.2519531-1.1279297,0.1835938  c-0.1533203-0.0615234-0.2001953-0.1679688-0.2001953-0.1679688c-0.03125-0.0917969-0.1142578-0.1542969-0.2109375-0.1650391  c-0.0927734-0.0087891-0.1914063,0.0380859-0.2421875,0.1220703c-0.0009766,0.0009766-0.0439453,0.0712891-0.1152344,0.0869141  c-0.0791016,0.0185547-0.1708984-0.0351563-0.2363281-0.0810547c-0.7949219-0.5517578-0.6513672-1.1796875-0.6455078-1.203125  c0.0263672-0.0986328-0.0126953-0.2011719-0.09375-0.2626953s-0.1962891-0.0654297-0.2832031-0.0126953  c-0.0351563,0.0224609-0.3564453,0.1914063-0.8154297-0.4042969c-0.1367188-0.1767578,0.1279297-0.4111328,0.1386719-0.4199219  c0.0810547-0.0693359,0.109375-0.1835938,0.0703125-0.2832031c-0.0400391-0.0996094-0.1435547-0.1582031-0.2460938-0.1572266  c-0.2246094,0.0175781-0.4755859-0.0117188-0.6152344-0.0556641c0.0029297-0.0019531,0.0058594-0.0039063,0.0087891-0.0068359  c0.1005859-0.0830078,0.2392578-0.1972656,0.3447266-0.3642578c0.2988281-0.4707031,0.1083984-1.0410156,0.0996094-1.0644531  c-0.0263672-0.0761719-0.0898438-0.1347656-0.1669922-0.1572266c-0.0771484-0.0234375-0.1630859-0.0058594-0.2265625,0.0439453  c-0.0146484,0.0107422-0.0371094,0.0234375-0.0341797,0.0351563c-0.1748047-0.2128906,0.1015625-0.7265625,0.265625-0.9453125  c0.0488281-0.0644531,0.0634766-0.1484375,0.0390625-0.2255859c-0.0244141-0.0761719-0.0839844-0.1367188-0.1601563-0.1621094  c-0.0150146-0.0043945-0.2416382-0.0644531-0.5258179-0.0425415C20.0475464,21.8811646,20.5298462,21.0811157,21.1470947,20.4030151  z M19.5776978,23.3122559c0.0635376-0.0227661,0.1279907-0.0510864,0.1879272-0.057373  c-0.1777344,0.3457031-0.3417969,0.8632813-0.0058594,1.2314453c0.1015625,0.1113281,0.2119141,0.1669922,0.3583984,0.1484375  c0.0039063,0.1191406-0.0136719,0.2597656-0.0898438,0.3808594c-0.0634766,0.0996094-0.1542969,0.1738281-0.2412109,0.2460938  c-0.1210938,0.0996094-0.2578125,0.2128906-0.2675781,0.3945313c-0.0048828,0.1113281,0.0400391,0.2158203,0.1347656,0.3115234  c0.1386719,0.1386719,0.3798828,0.2011719,0.6035156,0.2275391c-0.078125,0.2050781-0.0849609,0.4462891,0.0947266,0.6796875  c0.3876953,0.5019531,0.7753906,0.6279297,1.0810547,0.6367188c0.0283203,0.3535156,0.1982422,0.8876953,0.8681641,1.3515625  c0.2734375,0.1904297,0.4980469,0.1894531,0.6396484,0.1572266c0.0693359-0.0166016,0.1298828-0.0429688,0.1816406-0.0742188  c0.0654297,0.0595703,0.1494141,0.1181641,0.2558594,0.1640625c0.1425781,0.0625,0.3027344,0.0927734,0.4804688,0.0927734  c0.2371826,0,0.5134277-0.0713501,0.8101196-0.1802979c-0.0891113,0.5324707-0.1115112,1.0209961-0.071106,1.4656982  c-0.2549438-0.015625-0.4735107-0.2126465-0.666748-0.3918457c-0.1835938-0.1699219-0.3574219-0.3310547-0.5742188-0.3388672  c-0.3339844,0-0.5947266,0.1728516-0.7392578,0.3642578c-0.0927734-0.0742188-0.2109375-0.21875-0.2910156-0.4960938  c-0.2607422-0.9023438-1.2001953-1.1220703-1.2402344-1.1308594c-0.1210938-0.0253906-0.2353516,0.0351563-0.2841797,0.1445313  c-0.0504761,0.116333-0.1269531,0.2246704-0.1918945,0.2935181C19.824707,27.8190918,19.3583984,26.4640503,19.3583984,25  C19.3583984,24.416687,19.4396973,23.8532715,19.5776978,23.3122559z M20.9107056,29.3339844  c0.1004639-0.0875854,0.184082-0.1934814,0.2435913-0.2900391c0.2167969,0.0908203,0.5703125,0.2988281,0.6923828,0.7207031  c0.1953125,0.671875,0.6210938,0.8994141,0.8417969,0.9277344c0.1123047,0.0087891,0.2246094-0.0507813,0.265625-0.1591797  c0.0009766-0.0029297,0.1083984-0.2763672,0.3662109-0.2763672c0.0048828,0,0.0087891,0,0.0126953,0  c0.0488281,0.0117188,0.1757813,0.1289063,0.2587891,0.2060547c0.2421875,0.2246094,0.5732422,0.53125,1.0371094,0.53125  c0.0148315,0,0.0239258-0.0133057,0.0380859-0.0158081c0.0592651,0.2705078,0.1516724,0.5158691,0.2676392,0.742981  C23.324707,31.4182129,21.9111938,30.5533447,20.9107056,29.3339844z"></path></svg>