<svg xmlns="http://www.w3.org/2000/svg" xmlns:xlink="http://www.w3.org/1999/xlink" version="1.1" x="0px" y="0px" viewBox="0 0 50 50" style="enable-background:new 0 0 50 50;" xml:space="preserve"><path fill="#3d4f5d" d="M43.5,24.5297852c0-5.3217773-4.3291016-9.6513672-9.6513672-9.6513672h-16.28125  c-5.3212891,0-9.6503906,4.3295898-9.6503906,9.6513672c0,0.0114746,0.0057983,0.0211182,0.0065308,0.0324097  c0.0006714,0.0105591-0.0040283,0.0205078-0.0026245,0.0310669l2.0527344,16.0410156  c0.0322266,0.2495117,0.2441406,0.4365234,0.4960938,0.4365234h30.4775391c0.2519531,0,0.4638672-0.1870117,0.4960938-0.4365234  l2.0527344-16.0410156c0.0014038-0.0105591-0.0032959-0.0205078-0.0026245-0.0310669  C43.4942017,24.5509033,43.5,24.5412598,43.5,24.5297852z M17.5673828,15.878418h16.28125  c4.6025391,0,8.3769531,3.612793,8.6367188,8.1513672H29.125V23.25h11.75c0.1376953,0,0.25-0.1118164,0.25-0.25  c0-3.652832-3.7324219-6.625-8.3203125-6.625h-14.359375C13.8574219,16.375,10.125,19.347168,10.125,23  c0,0.1381836,0.1123047,0.25,0.25,0.25h11.75v0.7797852H8.9316406C9.1914063,19.4912109,12.9648438,15.878418,17.5673828,15.878418z   M28.625,21.1875h-2.0605469c-0.2763672,0-0.5,0.2236328-0.5,0.5V22.5h-0.8164063v-0.8125c0-0.2763672-0.2236328-0.5-0.5-0.5H22.625  c-0.2763672,0-0.5,0.2236328-0.5,0.5V22.75H10.6318359c0.1679688-3.2617188,3.6083984-5.875,7.8134766-5.875h14.359375  c4.2050781,0,7.6455078,2.6132813,7.8134766,5.875H29.125v-1.0625C29.125,21.4111328,28.9013672,21.1875,28.625,21.1875z   M28.125,24.0297852h-5V22.1875h1.1230469V23c0,0.2763672,0.2236328,0.5,0.5,0.5h1.8164063c0.2763672,0,0.5-0.2236328,0.5-0.5  v-0.8125H28.125V24.0297852z M23.125,25.0297852h5v3.9560547c0,1.378418-1.1210938,2.4995117-2.5,2.4995117  s-2.5-1.1210938-2.5-2.4995117V25.0297852z M25.625,32.4853516c1.9296875,0,3.5-1.5698242,3.5-3.4995117v-2.6943359h11.7744141  L39.1269531,38.75H12.1855469l-1.7724609-12.4584961H22.125v2.6943359C22.125,30.9155273,23.6953125,32.4853516,25.625,32.4853516z   M40.5068359,40.0708008H10.9101563L8.9853516,25.0297852H22.125v0.7617188h-12c-0.0722656,0-0.1416016,0.03125-0.1884766,0.0859375  c-0.0478516,0.0546875-0.0693359,0.1274414-0.0585938,0.1992188l1.84375,12.9584961  C11.7392578,39.1582031,11.8447266,39.25,11.96875,39.25h27.375c0.1240234,0,0.2294922-0.0917969,0.2470703-0.2148438  l1.84375-12.9584961c0.0107422-0.0717773-0.0107422-0.1445313-0.0585938-0.1992188  c-0.046875-0.0546875-0.1162109-0.0859375-0.1884766-0.0859375H29.125v-0.7617188h13.3066406L40.5068359,40.0708008z   M24.890625,30.6235352c0,0.1381836,0.1123047,0.25,0.25,0.25h1.0722656c0.1376953,0,0.25-0.1118164,0.25-0.25v-1.4780273  c0.2851563-0.2358398,0.4462891-0.5673828,0.4462891-0.9272461c0-0.6796875-0.5527344-1.2324219-1.2324219-1.2324219  s-1.2324219,0.5527344-1.2324219,1.2324219c0,0.3598633,0.1611328,0.6914063,0.4462891,0.9272461V30.6235352z   M25.6767578,27.4858398c0.4042969,0,0.7324219,0.3286133,0.7324219,0.7324219c0,0.2348633-0.1220703,0.4516602-0.3359375,0.5947266  c-0.0683594,0.0463867-0.1103516,0.1240234-0.1103516,0.2075195v1.3530273H25.390625v-1.3530273  c0-0.0834961-0.0419922-0.1611328-0.1103516-0.2075195c-0.2138672-0.1430664-0.3359375-0.3598633-0.3359375-0.5947266  C24.9443359,27.8144531,25.2724609,27.4858398,25.6767578,27.4858398z"></path></svg>