<svg xmlns="http://www.w3.org/2000/svg" xmlns:xlink="http://www.w3.org/1999/xlink" version="1.1" x="0px" y="0px" viewBox="0 0 50 50" style="enable-background:new 0 0 50 50;" xml:space="preserve"><path fill="#3d4f5d" d="M22.258606,32.2941895c0.0479736-0.0047607,0.0880127-0.020874,0.1255493-0.0505371l3.7818604-2.1833496  l3.8359375,2.2145996c0.000061,0.000061,0.0001831,0,0.0002441,0.000061  c0.0376587,0.0216675,0.0805054,0.0336304,0.1247559,0.0336304c0.0214844,0,0.0429688-0.0029297,0.0644531-0.0083008  c0.0087891-0.0023804,0.0131836-0.0111694,0.0215454-0.0144043c0.0321045-0.012085,0.0585938-0.031189,0.0839233-0.0560303  c0.0115356-0.0114136,0.0238647-0.019165,0.032959-0.0325317c0.0039063-0.0055542,0.010437-0.0077515,0.013916-0.0137329  c0.0079346-0.013855,0.0006714-0.0293579,0.0056763-0.0438843c0.0100098-0.0270996,0.0275269-0.0509644,0.0275269-0.0811157  v-4.4294434l3.8359375-2.2145996c0.0046997-0.0026855,0.0046387-0.0089722,0.0090942-0.0119019  c0.0501709-0.0328369,0.0907593-0.0786133,0.1071167-0.1394653c0-0.000061,0-0.0001831,0-0.0002441  s-0.000061-0.0001831-0.000061-0.0002441c0.0161133-0.0606689,0.0043335-0.1203613-0.0223389-0.173645  c-0.0024414-0.0050659,0.0008545-0.0108032-0.0020142-0.0158081c-0.0080566-0.013855-0.0251465-0.0151367-0.0352783-0.0267944  c-0.0184326-0.0222778-0.0303955-0.0494995-0.0565186-0.0645142l-3.8359375-2.2147827v-4.4297485  c0-0.0301514-0.0175171-0.0540161-0.0275269-0.0811157c-0.0050049-0.0145264,0.0022583-0.0300293-0.0056763-0.0438843  c-0.0028687-0.0048828-0.0093994-0.0048828-0.0125122-0.0095215c-0.0328979-0.0502319-0.0787354-0.0908203-0.1398315-0.1071777  c-0.0003662-0.000061-0.0006104,0.0001221-0.0009766,0.000061c-0.0016479-0.0004272-0.0032349,0.0007935-0.0048828,0.0003662  c-0.0582886-0.0130005-0.1157227-0.0026855-0.1673584,0.0227661c-0.005127,0.0025635-0.0112305-0.0007935-0.0162354,0.0021973  l-3.8359375,2.2147827l-3.8359375-2.2147827c-0.0040283-0.0023804-0.0087891,0.0003662-0.0128784-0.00177  c-0.0493774-0.0255127-0.1052246-0.0348511-0.1652832-0.0223389c-0.0039673,0.0008545-0.0077515-0.00177-0.0115967-0.0007324  c-0.0002441,0.000061-0.0004272-0.0001221-0.0006714-0.000061c-0.0609741,0.0163574-0.1065674,0.0568237-0.1392212,0.1069336  c-0.0030518,0.0045166-0.0093384,0.0044556-0.012146,0.0092773c-0.0078125,0.0136719-0.0006104,0.0290527-0.0056152,0.043457  c-0.0101318,0.0273438-0.0275879,0.0515137-0.0275879,0.0820313l0.0100708,4.4234619l-3.8460083,2.2205811  c-0.0046997,0.0026855-0.0046387,0.0089722-0.0090942,0.0119019c-0.0501709,0.0328369-0.0907593,0.0786133-0.1071167,0.1394653  c0,0.000061,0,0.0001831,0,0.0002441s0.000061,0.0001831,0.000061,0.0002441  c-0.0161133,0.0606689-0.0043335,0.1203613,0.0223389,0.173645c0.0024414,0.0050659-0.0008545,0.0108032,0.0020142,0.0158081  c0.0217896,0.0372314,0.0529175,0.0650024,0.0872192,0.0860596c0.0020752,0.0012817,0.0024414,0.0040283,0.0045776,0.005249  l0.001709,0.0009766c0.0001831,0.0001221,0.0003662,0.0001831,0.0005493,0.0003052l3.8548584,2.2255859l0.0098267,4.3234253  c-0.0303345,0.0700073-0.0385132,0.1474609,0.0021973,0.21875c0.0403442,0.0689087,0.1096191,0.1052246,0.1824341,0.1159058  c0.0004883,0.0001221,0.0006714,0.0006714,0.0011597,0.0007935s0.0009155-0.0002441,0.0014038-0.0001221  c0.0109863,0.0014648,0.0206909,0.0084229,0.0317993,0.0084229C22.2234497,32.3085938,22.2404785,32.2982178,22.258606,32.2941895z   M22.9318848,31.3505249l1.3630371-2.3704834l1.3713989,0.791748L22.9318848,31.3505249z M26.6132813,24.9482422  l1.6307983-2.8355713l1.6328735,0.942749v1.8928223H26.6132813z M29.8769531,25.4482422v1.8926392l-1.6389771,0.946228  l-1.6393433-2.8388672H29.8769531z M26.1738281,24.7109375l-1.6465454-2.8519287l1.6387329-0.946167l1.6454468,0.9500122  L26.1738281,24.7109375z M25.7335205,24.9482422h-3.2634277l-0.0043335-1.8989868l1.6283569-0.9401855L25.7335205,24.9482422z   M25.7498169,25.4482422l-1.6384888,2.848877l-1.6356812-0.9443359l-0.0043945-1.904541H25.7498169z M26.1738281,25.7124023  l1.6309814,2.8248291l-1.6387939,0.946106l-1.6220703-0.9364624L26.1738281,25.7124023z M28.0546265,28.9699097l1.3890381,2.4057007  l-2.7780151-1.6038208L28.0546265,28.9699097z M29.8769531,31.1254883l-1.3891602-2.4056396l1.3891602-0.802002V31.1254883z   M30.3769531,25.4482422h2.7782593l-2.7782593,1.6040039V25.4482422z M33.1552734,24.9482422h-2.7783203v-1.604126  L33.1552734,24.9482422z M28.4931641,21.6795044l1.3837891-2.4060669v3.2050171L28.4931641,21.6795044z M29.4469604,19.0184937  l-1.3864746,2.4111938l-1.3948364-0.8053589L29.4469604,19.0184937z M24.2774048,21.4262695l-1.3890381-2.4058838  l2.7780151,1.6039429L24.2774048,21.4262695z M22.4570313,19.2739258l1.387207,2.4024658l-1.3798218,0.7966919  L22.4570313,19.2739258z M21.9701538,24.9482422h-2.793396l2.7897339-1.6107178L21.9701538,24.9482422z M19.1767578,25.4482422  h2.7944946l0.0037231,1.6154785L19.1767578,25.4482422z M23.8622437,28.7302246l-1.3778687,2.395752l-0.0073853-3.1954956  L23.8622437,28.7302246z M42.8085938,39.6425781c-0.0845337-0.1970215-1.8067627-4.1052856-4.3569336-5.3493042l0.3032227-0.9089966  c0.0166016-0.0507813,0.0253906-0.1044922,0.0253906-0.1582031V22.0224609c0-0.1333008-0.0537109-0.2612305-0.1484375-0.3554688  l-1.2666016-1.2539063l1.3623047-2.7294922c0.0351563-0.0693359,0.0527344-0.1455078,0.0527344-0.2231445v-5.3222656  c0-0.1635742-0.1210938-0.3979492-0.2548828-0.4916992c-0.0439453-0.0307617-0.1318359-0.0917969-0.3007813-0.1137695  c0.2275391-0.8149414,0.0927734-1.0043945,0.0048828-1.1274414C37.6669922,9.609375,36.75,9.1337891,35.7753906,9.1337891H32.734375  c-0.1728516,0-0.3330078,0.0893555-0.4248047,0.2358398l-0.5185547,0.8349609l-3.8447266-1.0532227  c-0.0429688-0.0117188-0.0869141-0.0175781-0.1318359-0.0175781H13.4130859c-1.6572266,0-3.0048828,1.3476563-3.0048828,3.0043945  v26.1196289c0,1.6567383,1.3476563,3.0048828,3.0048828,3.0048828h4.8310547c0.0761719,0,0.1503906-0.0170898,0.21875-0.050293  l1.5078125-0.7348633l2.0625,0.7548828c0.0546875,0.0200195,0.1132813,0.0302734,0.171875,0.0302734h4.690979  c-0.0007935,0.006897-0.0049438,0.0125122-0.0054321,0.0195313c-0.0195313,0.2841797-0.0878906,1.7338867,0.5087891,2.3730469  c0.1992188,0.2133789,0.453125,0.3276367,0.7353516,0.3305664c0.0058594-0.0004883,0.0097656-0.0004883,0.0195313,0  c0.8076172,0,1.4550781,0.034668,1.9882813,0.0634766c0.3740234,0.0195313,0.7050781,0.0375977,1.0058594,0.0375977  c0.8916016,0,1.5146484-0.1557617,2.1767578-0.8691406c0.4599609-0.4970703,0.8857422-1.0932617,1.2978516-1.6699219  c0.0748901-0.1047974,0.1502075-0.2096558,0.2255249-0.3140869c0.0463257,0.0141602,0.0926514,0.0289307,0.1436157,0.0289307  h0.7832031c0.743103,0,1.4440308-0.2880859,1.9915771-0.7778931c0.2717285,0.4799805,0.5438232,1.0634155,0.7564697,1.6685181  c0.0742188,0.2114258,0.2802734,0.3408203,0.5039063,0.3334961c0.2236328-0.0146484,0.4111328-0.1762695,0.4570313-0.3959961  l0.4404297-2.0913086l2.3544922,0.3364258c0.1777344,0.0263672,0.3574219-0.0478516,0.4677734-0.1914063  C42.8564453,40.0004883,42.8808594,39.8085938,42.8085938,39.6425781z M14.6611328,20.4094849  c-0.3651123,0.0037842-1.039917,0.0089722-1.3164063-0.0022583l-0.1152344-0.0058594  c-0.4368286-0.024292-1.2739258-0.0571899-1.8212891,0.361084v-0.5365601  c0.1080322-0.7954102,0.9793091-0.8187256,1.7958984-0.7791138l0.1191406,0.0063477  c0.2870483,0.0120239,0.9660645,0.0065918,1.3378906,0.0027466V20.4094849z M14.6611328,18.9564819  c-0.3657227,0.0043945-1.0419312,0.0100098-1.3164063-0.0033569l-0.1152344-0.0053711  c-0.4400024-0.0232544-1.2774048-0.0566406-1.8212891,0.3439941v-0.0843506  c0.1383057-0.8032227,0.9920654-0.8299561,1.7949219-0.7874756l0.1201172,0.0058594  c0.2870483,0.0131226,0.9660645,0.0076904,1.3378906,0.0036011V18.9564819z M11.4082031,21.6879883  c0.1384888-0.8047485,1.0036621-0.8272095,1.7949219-0.7875977l0.1201172,0.0058594  c0.2870483,0.0134888,0.9660645,0.0079346,1.3378906,0.0036621v13.6796265  c-0.3657227,0.0042725-1.0419312,0.0098877-1.3164063-0.0031128l-0.1152344-0.0053711  c-0.4429321-0.0235596-1.2785034-0.0557251-1.8212891,0.343811V21.6879883z M14.6611328,17.9294434  c-0.3651123,0.0040894-1.039917,0.0092163-1.3164063-0.0026855l-0.1152344-0.0058594  c-0.4355469-0.022583-1.2734985-0.0571289-1.8212891,0.3609619v-0.536499  c0.1080322-0.7973022,0.9821777-0.8206177,1.7949219-0.7790527l0.1201172,0.0063477  c0.2870483,0.0120239,0.9660645,0.006897,1.3378906,0.0029297V17.9294434z M11.4082031,35.8591309  c0.1080322-0.7973022,0.9821777-0.821106,1.7949219-0.7790527l0.1201172,0.0063477  c0.2870483,0.0120239,0.9660645,0.0065918,1.3378906,0.0027466v0.9534302  c-0.3649292,0.0037842-1.0393066,0.0091553-1.3164063-0.0020752l-0.1152344-0.0058594  c-0.4355469-0.024292-1.2734985-0.0581665-1.8212891,0.3604736V35.8591309z M13.4130859,10.1337891h1.2480469v6.3416138  c-0.3657227,0.0037842-1.0419312,0.0089722-1.3164063-0.0022583l-0.1152344-0.0058594  c-0.4429321-0.0235596-1.2785034-0.0557251-1.8212891,0.343811v-4.6729126  C11.4082031,11.0327148,12.3076172,10.1337891,13.4130859,10.1337891z M11.4082031,38.2578125v-0.9365234  c0.1391602-0.8033447,0.993042-0.8305664,1.7949219-0.7875977l0.1201172,0.0058594  c0.2870483,0.0134888,0.9660645,0.0079346,1.3378906,0.0036621v3.7194824h-1.2480469  C12.3076172,40.2626953,11.4082031,39.3632813,11.4082031,38.2578125z M20.1142578,39.465332  c-0.1289063-0.0458984-0.2695313-0.0390625-0.390625,0.0200195l-1.5947266,0.7773438h-2.9677734V10.1337891h12.5859375  l4.1396484,1.1337891c0.2128906,0.0576172,0.4394531-0.0307617,0.5566406-0.2182617l0.5693359-0.9155273h2.7626953  c0.6113281,0,1.1884766,0.2802734,1.5683594,0.7563477c-0.0283203,0.2045898-0.1660156,0.6743164-0.3251953,1.0932617  c-0.0693359,0.1831055-0.0253906,0.3896484,0.1123047,0.5288086c0.1376953,0.1386719,0.3427734,0.1850586,0.5283203,0.1176758  c0.0351563-0.0131836,0.0771484-0.0268555,0.1210938-0.0400391v4.7529297l-1.4716797,2.9477539  c-0.0966797,0.1928711-0.0576172,0.4267578,0.0957031,0.5786133l1.3759766,1.3618164v10.9140625l-0.2738037,0.8200073  c-0.1918945-0.0360107-0.3867188-0.0582886-0.5855713-0.0582886c-0.0019531,0-0.0039063,0-0.0058594,0  c-2.8396606,0.0050049-5.7069092,3.6187134-7.4741821,6.355957h-7.1469116L20.1142578,39.465332z M27.9970703,42.6948242  c-0.0878906-0.3129883-0.1435547-0.828125-0.1083984-1.34375c0.0020752-0.0308838-0.0083008-0.0586548-0.0117188-0.0883789  h0.9397583C28.4699707,41.8397217,28.1884766,42.3408813,27.9970703,42.6948242z M35.7753906,40.2626953H35.598999  c0.4036865-0.4708252,0.803833-0.8244019,1.1861572-0.8876953c0.0068359-0.0009766,0.0146484-0.0019531,0.0234375-0.0019531  c0.1021118,0,0.239563,0.105957,0.3936157,0.279541C36.826355,40.0371094,36.3164673,40.2626953,35.7753906,40.2626953z   M39.6025391,38.9433594c-0.2431641-0.0332031-0.5058594,0.1333008-0.5595703,0.3920898l-0.2099609,0.996582  c-0.5234375-1.0253906-1.2958984-2.0917969-2.2119141-1.9433594c-1.0986328,0.1816406-1.9306641,1.3452148-2.8115234,2.5776367  c-0.3935547,0.5512695-0.8017578,1.121582-1.2177734,1.5717773c-0.5458984,0.5874023-0.9140625,0.5908203-2.3955078,0.5126953  c-0.3564453-0.019043-0.7607422-0.0405273-1.2285156-0.0532227c1.5205078-2.78125,5.0224609-8.0859375,7.9492188-8.0908203  c0.0009766,0,0.0019531,0,0.0039063,0c1.8984375,0,3.6835938,2.6240234,4.5703125,4.3066406L39.6025391,38.9433594z"></path></svg>