<svg xmlns="http://www.w3.org/2000/svg" xmlns:xlink="http://www.w3.org/1999/xlink" xmlns:sketch="http://www.bohemiancoding.com/sketch/ns" viewBox="0 0 100 100" version="1.1" x="0px" y="0px"><title>11</title><desc>Created with Sketch.</desc><g stroke="none" stroke-width="1" fill-rule="evenodd" sketch:type="MSPage"><path fill="#3d4f5d" d="M75.9003846,75.9003846 C74.5434615,77.2642308 72.3315385,77.2573077 70.9815385,75.9003846 C69.6246154,74.5434615 69.6246154,72.3384615 70.9815385,70.9815385 C71.6565385,70.3030769 72.5496154,69.9603846 73.4426923,69.9603846 C74.3323077,69.9603846 75.2253846,70.3030769 75.9003846,70.9815385 C77.2607692,72.3384615 77.2607692,74.5434615 75.9003846,75.9003846 L75.9003846,75.9003846 Z M56.1730769,63.7157692 L22.5961538,30.1388462 L22.5961538,23.5757692 L54.6603846,55.64 L55.64,54.6603846 L23.5757692,22.5961538 L30.1388462,22.5961538 L63.7157692,56.1730769 L56.1730769,63.7157692 Z M77.7384615,69.1434615 C76.3365385,67.745 74.3046154,67.2119231 72.4146154,67.5165385 L64.6365385,59.7419231 L72.9996154,51.3753846 L71.1615385,49.5373077 L65.9553846,54.74 L31.5961538,20.3773077 L31.2153846,20 L20,20 L20,31.2153846 L54.74,65.9553846 L49.5373077,71.1615385 L51.3753846,72.9996154 L59.7419231,64.6365385 L67.4715385,72.3661538 C67.4057692,72.7192308 67.3642308,73.0757692 67.3642308,73.4426923 C67.3642308,75.0661538 67.9976923,76.5892308 69.1434615,77.7384615 C70.3307692,78.9223077 71.885,79.5142308 73.4426923,79.5142308 C74.9969231,79.5142308 76.5511538,78.9223077 77.7384615,77.7384615 C80.1061538,75.3707692 80.1061538,71.5111538 77.7384615,69.1434615 L77.7384615,69.1434615 Z" sketch:type="MSShapeGroup"></path></g></svg>